<svg width="26" height="26" viewBox="0 0 26 26" fill="none" xmlns="http://www.w3.org/2000/svg">
<path d="M0.125 23.3393H25.125V25.125H0.125V23.3393ZM22.4464 8.16046C22.6832 8.16046 22.9103 8.06639 23.0778 7.89894C23.2452 7.73149 23.3393 7.50439 23.3393 7.26759V4.58897C23.3392 4.40548 23.2826 4.22646 23.1772 4.07628C23.0717 3.92611 22.9226 3.81206 22.75 3.74968L12.9286 0.178192C12.7324 0.107269 12.5176 0.107269 12.3214 0.178192L2.5 3.74968C2.32744 3.81206 2.17829 3.92611 2.07285 4.07628C1.9674 4.22646 1.91079 4.40548 1.91071 4.58897V7.26759C1.91071 7.50439 2.00478 7.73149 2.17223 7.89894C2.33967 8.06639 2.56677 8.16046 2.80357 8.16046H3.69643V19.7678H1.91071V21.5535H23.3393V19.7678H21.5536V8.16046H22.4464ZM3.69643 5.21398L12.625 1.96393L21.5536 5.21398V6.37472H3.69643V5.21398ZM14.4107 19.7678H10.8393V8.16046H14.4107V19.7678ZM5.48214 8.16046H9.05357V19.7678H5.48214V8.16046ZM19.7679 19.7678H16.1964V8.16046H19.7679V19.7678Z" fill="white" stroke="#111111" stroke-width="0.25"/>
</svg>
