<svg width="27" height="27" viewBox="0 0 27 27" fill="none" xmlns="http://www.w3.org/2000/svg">
<path d="M3.25 20.4639L2.42083 15.8208C2.30382 15.1665 2.42529 14.492 2.76321 13.9196C3.10113 13.3472 3.63308 12.915 4.2625 12.7014L4.49861 12.6208M4.49861 12.6208L12.3583 9.95417C12.9366 9.75816 13.5634 9.75816 14.1417 9.95417L22 12.6208M4.49861 12.6208L4.5 7.34306C4.5 6.60634 4.79266 5.8998 5.31359 5.37887C5.83453 4.85794 6.54106 4.56528 7.27778 4.56528H10.75M22 12.6208L22.2361 12.7014C22.8658 12.9147 23.3981 13.3469 23.7362 13.9193C24.0744 14.4917 24.1961 15.1664 24.0792 15.8208L23.25 20.4625M22 12.6208V7.34306C22 6.60634 21.7073 5.8998 21.1864 5.37887C20.6655 4.85794 19.9589 4.56528 19.2222 4.56528H15.75M10.75 4.56528H15.75M10.75 4.56528V3.25C10.75 2.58696 11.0134 1.95107 11.4822 1.48223C11.9511 1.01339 12.587 0.75 13.25 0.75C13.913 0.75 14.5489 1.01339 15.0178 1.48223C15.4866 1.95107 15.75 2.58696 15.75 3.25V4.56528M0.75 24.9153C1.64861 25.8278 3.83611 26.0861 5.92361 25.2153C7.35694 24.6181 9.16806 24.6028 10.6333 25.1167C12.3297 25.6959 14.1703 25.6959 15.8667 25.1167C17.3319 24.6028 19.1431 24.6167 20.575 25.2139C22.6639 26.0861 24.8528 25.8278 25.75 24.9139" stroke="white" stroke-width="1.5" stroke-linecap="round" stroke-linejoin="round"/>
</svg>
